<svg xmlns="http://www.w3.org/2000/svg">
  <symbol id="battery" viewBox="0 0 68 68">
    <path d="M46.536 8H40V4H28v4h-6.536A3.468 3.468 0 0018 11.464v49.072A3.468 3.468 0 0021.464 64h25.072A3.468 3.468 0 0050 60.536V11.464A3.468 3.468 0 0046.536 8zM20 23h28v12H20V23zm0 14h28v12H20V37zM30 6h8v2h-8V6zm-8.536 4h25.072c.808 0 1.464.656 1.464 1.464V21H20v-9.536c0-.808.656-1.464 1.464-1.464zm25.072 52H21.464A1.465 1.465 0 0120 60.536V51h28v9.536c0 .808-.656 1.464-1.464 1.464z"></path>
  </symbol>
  <symbol id="speaker" viewBox="0 0 68 68">
    <path d="M36.404 11.413a3.029 3.029 0 00-3.09.044.929.929 0 00-.13.093l-13.55 11.463H9a1 1 0 00-1 1v19a1.002 1.002 0 001 1l10.61-.005 13.543 12.44c.05.046.104.086.161.12a3.055 3.055 0 001.582.446 3.07 3.07 0 001.508-.402A3.122 3.122 0 0038 53.857V14.169a3.125 3.125 0 00-1.596-2.756zM36 53.857c0 .431-.217.81-.579 1.015a1.049 1.049 0 01-1 .026L21 42.569v-4.556a1 1 0 10-2 0v3.996l-9 .004v-17h9v4a1 1 0 102 0v-4.536l13.405-11.34c.461-.242.86-.07 1.016.018.362.205.579.584.579 1.014v39.688zm10.797-38.791a1.002 1.002 0 00-.643 1.895 17.48 17.48 0 0111.872 16.553 17.492 17.492 0 01-11.849 16.554 1 1 0 00.646 1.893 19.489 19.489 0 0013.202-18.446 19.478 19.478 0 00-13.228-18.449z"></path>
    <path d="M51.026 33.513c0-5.972-4.009-11.302-9.749-12.962a1 1 0 00-.554 1.922c4.889 1.413 8.304 5.953 8.304 11.04 0 5.087-3.415 9.627-8.304 11.04a1 1 0 00.554 1.922c5.741-1.66 9.749-6.99 9.749-12.962z"></path>
  </symbol>
  <symbol id="speed" viewBox="0 0 68 68">
    <path d="M35.634 41.989a3.558 3.558 0 002.606-1.459l9.363-12.944a1 1 0 00-1.397-1.397L33.26 35.555a3.557 3.557 0 00-1.456 2.604 3.56 3.56 0 001.033 2.797 3.554 3.554 0 002.797 1.033zm-1.836-3.674a1.56 1.56 0 01.637-1.142l7.897-5.713-5.711 7.895a1.565 1.565 0 01-2.371.187 1.564 1.564 0 01-.452-1.227z"></path>
    <path d="M58.034 23.564c-.01-.021-.01-.043-.021-.064-.012-.02-.031-.031-.044-.05a27.185 27.185 0 00-3.565-4.809l2.148-2.147 1.414 1.414 4.242-4.243-4.242-4.242-4.243 4.242 1.415 1.415-2.148 2.147a27.154 27.154 0 00-4.809-3.566c-.019-.013-.03-.032-.05-.044-.021-.012-.043-.011-.064-.022a26.81 26.81 0 00-10.273-3.404V9h1.5c1.379 0 2.5-1.121 2.5-2.5S40.672 4 39.293 4h-9a2.502 2.502 0 00-2.5 2.5c0 1.379 1.121 2.5 2.5 2.5h1.5v1.156c-1.08.115-2.158.291-3.224.535a1 1 0 10.447 1.949 25.43 25.43 0 012.78-.477l1.073-.083c.328-.025.63-.043.924-.057V14a1 1 0 102 0v-1.97a24.805 24.805 0 0110.456 2.845l-.986 1.707a1 1 0 001.732 1l.983-1.703a25.194 25.194 0 017.772 7.772l-1.703.983a1 1 0 001.002 1.732l1.707-.986a24.82 24.82 0 012.849 10.619H57.63a1 1 0 100 2h1.975a24.82 24.82 0 01-2.849 10.619l-1.707-.986a1 1 0 00-1 1.732l1.703.983a25.194 25.194 0 01-7.772 7.772l-.983-1.703a.998.998 0 00-1.366-.366.999.999 0 00-.366 1.366l.986 1.707a24.805 24.805 0 01-10.456 2.845V60a1 1 0 10-2 0v1.976a25.235 25.235 0 01-4.776-.617.996.996 0 00-1.198.751 1 1 0 00.751 1.198c1.996.46 4.035.692 6.058.692.049 0 .096-.003.145-.004.007 0 .012.004.018.004.008 0 .015-.005.023-.005a26.825 26.825 0 0013.219-3.573c.031-.014.064-.021.094-.039.02-.012.031-.031.05-.044a27.197 27.197 0 009.773-9.761c.019-.027.043-.048.06-.078.012-.021.011-.043.021-.064A26.808 26.808 0 0061.63 37c0-4.89-1.313-9.476-3.596-13.436zm-.069-11.313l1.414 1.414-1.414 1.415-1.415-1.415 1.415-1.414zm-24.172-2.23V7h-3.5a.501.501 0 01-.5-.5c0-.275.225-.5.5-.5h9c.275 0 .5.225.5.5s-.225.5-.5.5h-3.5v3.021c-.348-.014-.68-.021-1-.021l-.088.002L34.63 10c-.164 0-.328.011-.492.014-.116.003-.225.002-.345.007zm-8 7.979h-5a1 1 0 100 2h5a1 1 0 100-2zm0 7h-10a1 1 0 100 2h10a1 1 0 100-2zm0 7h-15a1 1 0 100 2h15a1 1 0 100-2zm0 7h-19a1 1 0 100 2h19a1 1 0 100-2zm0 7h-13a1 1 0 100 2h13a1 1 0 100-2zm0 7h-7a1 1 0 100 2h7a1 1 0 100-2z"></path>
  </symbol>
</svg>